#!OML:ASF E:\CV Data\Top Level 1\Subject 1\Session 1\player.ASF
:FULLY-SPECIFIED
:DEGREES
639
root 8.21262 17.3366 -10.7808 -122.313 -94.5493 -233.122
lowerback 10.2936 0.756749 3.73816
upperback 2.1909 1.38649 1.91565
thorax -3.44364 0.619715 -0.291432
lowerneck -15.2194 14.2564 -2.8769
upperneck 13.2608 19.7919 0.732477
head 6.11837 9.48753 2.48436
rclavicle 1.2424e-014 1.43125e-014
rhumerus -45.4144 34.9081 -106.544
rradius 125.357
rwrist -19.5762
rhand -27.8641 22.899
rfingers 7.12502
rthumb -1.25463 -7.07704
lclavicle 1.2424e-014 1.43125e-014
lhumerus -34.1371 -50.4479 117.533
lradius 97.423
lwrist -13.4304
lhand -30.4891 3.77834
lfingers 7.12502
lthumb -3.78979 33.7244
rfemur -16.6637 3.30672 19.005
rtibia 35.6842
rfoot -23.102 0.821491
rtoes -0.078052
lfemur -15.9204 3.92507 -7.76558
ltibia 29.7341
lfoot -14.5816 -1.6609
ltoes -4.4097
640
root 8.19115 17.3567 -10.778 -123.037 -94.5566 -232.409
lowerback 9.96132 0.748432 3.83817
upperback 2.15264 1.37228 1.90619
thorax -3.29738 0.615239 -0.35069
lowerneck -15.1823 14.2534 -2.83978
upperneck 13.4354 19.783 0.756767
head 6.16966 9.48022 2.49326
rclavicle -1.48095e-014 -1.35174e-014
rhumerus -46.0923 34.734 -107.181
rradius 125.401
rwrist -19.372
rhand -27.793 23.126
rfingers 7.12502
rthumb -1.18598 -6.85043
lclavicle -1.48095e-014 -1.35174e-014
lhumerus -34.7613 -50.5074 117.726
lradius 97.642
lwrist -13.4328
lhand -30.6237 3.79064
lfingers 7.12502
lthumb -3.91972 33.7343
rfemur -16.2873 3.55327 18.9888
rtibia 35.1692
rfoot -22.8972 0.585004
rtoes 0.0597888
lfemur -15.4964 3.55129 -7.82208
ltibia 29.1275
lfoot -14.3337 -1.31933
ltoes -4.42701
641
root 8.17058 17.3753 -10.7748 -123.862 -94.5916 -231.596
lowerback 9.62779 0.748196 3.94686
upperback 2.11164 1.36921 1.90985
thorax -3.15286 0.616178 -0.40254
lowerneck -15.1377 14.2442 -2.80812
upperneck 13.6067 19.7647 0.791002
head 6.21729 9.46935 2.50407
rclavicle 1.09332e-015 1.03368e-014
rhumerus -46.6262 34.5291 -107.659
rradius 125.43
rwrist -19.2141
rhand -27.7202 23.2671
rfingers 7.12502
rthumb -1.11566 -6.7097
lclavicle 1.09332e-015 1.03368e-014
lhumerus -35.2903 -50.6976 117.906
lradius 97.7422
lwrist -13.5449
lhand -31.0475 4.13044
lfingers 7.12502
lthumb -4.32902 34.0662
rfemur -15.9256 3.80626 18.9957
rtibia 34.6821
rfoot -22.7023 0.301456
rtoes 0.143773
lfemur -15.1077 3.1339 -7.86137
ltibia 28.5653
lfoot -14.0934 -0.959924
ltoes -4.45195
642
root 8.15125 17.3921 -10.7711 -124.727 -94.6489 -230.749
lowerback 9.30202 0.760261 4.05606
upperback 2.06899 1.38235 1.92676
thorax -3.01394 0.625026 -0.442877
lowerneck -15.0786 14.226 -2.77022
upperneck 13.7707 19.7311 0.830407
head 6.26059 9.45244 2.51274
rclavicle -1.14301e-014 6.36111e-015
rhumerus -47.0199 34.2994 -107.975
rradius 125.441
rwrist -19.1034
rhand -27.6593 23.3366
rfingers 7.12502
rthumb -1.05681 -6.6405
lclavicle -1.14301e-014 6.36111e-015
lhumerus -35.706 -50.9939 118.067
lradius 97.7389
lwrist -13.6905
lhand -31.5897 4.65414
lfingers 7.12502
lthumb -4.85259 34.5786
rfemur -15.574 4.07186 19.0212
rtibia 34.2279
rfoot -22.5227 -0.00924148
rtoes 0.254888
lfemur -14.7486 2.69931 -7.88488
ltibia 28.0527
lfoot -13.868 -0.601166
ltoes -4.48897
643
root 8.13322 17.4071 -10.7674 -125.67 -94.7112 -229.836
lowerback 8.99093 0.785086 4.1412
upperback 2.0254 1.41039 1.95423
thorax -2.88425 0.64127 -0.460538
lowerneck -15.0123 14.2015 -2.73274
upperneck 13.9392 19.6862 0.88694
head 6.30252 9.43167 2.52507
rclavicle -8.94531e-016 2.26615e-014
rhumerus -47.2747 34.0602 -108.141
rradius 125.439
rwrist -19.0485
rhand -27.6282 23.3277
rfingers 7.12502
rthumb -1.02686 -6.64962
lclavicle -8.94531e-016 2.26615e-014
lhumerus -35.9943 -51.3601 118.206
lradius 97.6432
lwrist -13.7973
lhand -32.1127 5.2687
lfingers 7.12502
lthumb -5.35754 35.181
rfemur -15.2326 4.3432 19.0476
rtibia 33.8148
rfoot -22.3631 -0.33639
rtoes 0.376706
lfemur -14.4093 2.22797 -7.90929
ltibia 27.5888
lfoot -13.6557 -0.220941
ltoes -4.50759
644
root 8.11679 17.4199 -10.7632 -126.631 -94.7677 -228.922
lowerback 8.70165 0.827525 4.19835
upperback 1.98151 1.46002 1.9909
thorax -2.76695 0.668149 -0.455439
lowerneck -14.9301 14.1664 -2.69049
upperneck 14.1047 19.6236 0.95207
head 6.34084 9.40384 2.53636
rclavicle -1.90833e-014 0
rhumerus -47.3985 33.8173 -108.166
rradius 125.427
rwrist -19.062
rhand -27.6458 23.2432
rfingers 7.12502
rthumb -1.04387 -6.73403
lclavicle -1.90833e-014 0
lhumerus -36.1875 -51.806 118.351
lradius 97.4545
lwrist -13.9387
lhand -32.69 5.99424
lfingers 7.12502
lthumb -5.91496 35.8917
rfemur -14.9028 4.60858 19.068
rtibia 33.4491
rfoot -22.2274 -0.668391
rtoes 0.460214
lfemur -14.0826 1.75541 -7.93875
ltibia 27.1732
lfoot -13.4635 0.140523
ltoes -4.40877
645
root 8.10201 17.4305 -10.7588 -127.654 -94.8045 -227.959
lowerback 8.43559 0.880217 4.20823
upperback 1.93498 1.52039 2.03506
thorax -2.66625 0.700342 -0.41733
lowerneck -14.8424 14.1313 -2.64853
upperneck 14.279 19.5591 1.02811
head 6.37989 9.37596 2.55069
rclavicle -1.31198e-014 -1.51076e-014
rhumerus -47.4066 33.6055 -108.08
rradius 125.406
rwrist -19.1647
rhand -27.7096 23.0991
rfingers 7.12502
rthumb -1.10545 -6.87774
lclavicle -1.31198e-014 -1.51076e-014
lhumerus -36.2461 -52.261 118.473
lradius 97.1944
lwrist -13.985
lhand -33.1313 6.62867
lfingers 7.12502
lthumb -6.34094 36.5138
rfemur -14.5924 4.8708 19.0634
rtibia 33.1365
rfoot -22.1196 -0.975654
rtoes 0.601591
lfemur -13.7706 1.30702 -7.98831
ltibia 26.8017
lfoot -13.2952 0.471189
ltoes -4.22508
646
root 8.0888 17.4388 -10.7541 -128.592 -94.8188 -227.092
lowerback 8.19334 0.944525 4.18183
upperback 1.8871 1.59455 2.08752
thorax -2.58091 0.739247 -0.351829
lowerneck -14.7233 14.0872 -2.68285
upperneck 14.4191 19.4894 1.14113
head 6.39157 9.34732 2.57966
rclavicle 7.15625e-015 7.15625e-015
rhumerus -47.3092 33.4355 -107.894
rradius 125.377
rwrist -19.3593
rhand -27.8284 22.9241
rfingers 7.12502
rthumb -1.22022 -7.05212
lclavicle 7.15625e-015 7.15625e-015
lhumerus -36.181 -52.7339 118.543
lradius 96.8984
lwrist -13.9421
lhand -33.4631 7.18496
lfingers 7.12502
lthumb -6.6613 37.0602
rfemur -14.3045 5.12191 19.0408
rtibia 32.8778
rfoot -22.0378 -1.25771
rtoes 0.693607
lfemur -13.4691 0.911753 -8.05199
ltibia 26.4737
lfoot -13.156 0.757451
ltoes -3.97329
647
root 8.07725 17.445 -10.749 -129.464 -94.8058 -226.295
lowerback 7.97234 1.01798 4.11271
upperback 1.83476 1.67906 2.14654
thorax -2.51326 0.783174 -0.256772
lowerneck -14.6106 14.0487 -2.69968
upperneck 14.5774 19.4266 1.24156
head 6.4131 9.32078 2.60516
rclavicle 1.13307e-014 3.4191e-014
rhumerus -47.118 33.3116 -107.622
rradius 125.35
rwrist -19.6595
rhand -27.954 22.7023
rfingers 7.12502
rthumb -1.3415 -7.27324
lclavicle 1.13307e-014 3.4191e-014
lhumerus -36.0139 -53.2164 118.556
lradius 96.6052
lwrist -13.7908
lhand -33.6873 7.67446
lfingers 7.12502
lthumb -6.87773 37.5427
rfemur -14.05 5.3567 18.9934
rtibia 32.6724
rfoot -21.9805 -1.49839
rtoes 0.769235
lfemur -13.1849 0.557236 -8.13496
ltibia 26.1856
lfoot -13.0417 1.02084
ltoes -3.70585
648
root 8.06748 17.4493 -10.7437 -130.233 -94.7715 -225.603
lowerback 7.77963 1.08921 4.0146
upperback 1.77761 1.76049 2.21225
thorax -2.46781 0.825268 -0.138578
lowerneck -14.511 14.0251 -2.71561
upperneck 14.7503 19.3859 1.33477
head 6.44187 9.30354 2.63224
rclavicle 8.15017e-015 2.18663e-014
rhumerus -46.8495 33.2594 -107.278
rradius 125.325
rwrist -20.0531
rhand -28.06 22.4358
rfingers 7.12502
rthumb -1.44384 -7.53909
lclavicle 8.15017e-015 2.18663e-014
lhumerus -35.7386 -53.6804 118.483
lradius 96.3417
lwrist -13.5269
lhand -33.8025 8.15347
lfingers 7.12502
lthumb -6.98896 38.0181
rfemur -13.8289 5.56307 18.9285
rtibia 32.5153
rfoot -21.9425 -1.68705
rtoes 0.80617
lfemur -12.9202 0.251285 -8.23017
ltibia 25.9371
lfoot -12.9522 1.26299
ltoes -3.4993
